<svg width="204" height="180" viewBox="0 0 204 180" fill="none" xmlns="http://www.w3.org/2000/svg">
<path d="M200.805 104.407C201.209 78.4987 204.375 49.5844 158.67 32.9177C112.987 16.2734 65.6887 45.4121 49.93 67.7091C34.1712 90.0062 14.3044 79.8222 6.35773 101.873C-1.61143 123.9 1.48645 148.014 77.721 151.357C153.933 154.699 200.199 143.416 200.805 104.407Z" fill="#019DF4" fill-opacity="0.2"/>
<mask id="mask0_98_3181" style="mask-type:alpha" maskUnits="userSpaceOnUse" x="3" y="28" width="198" height="124">
<path d="M200.466 104.244C200.871 78.3937 204.036 49.5439 158.325 32.9145C112.637 16.3074 65.3315 45.381 49.5706 67.6282C33.8098 89.8754 13.9403 79.7142 5.99248 101.715C-1.97777 123.694 1.12053 147.754 77.3655 151.089C153.588 154.424 199.86 143.166 200.466 104.244Z" fill="#019DF4"/>
</mask>
<g mask="url(#mask0_98_3181)">
<path opacity="0.89" d="M44.6108 55.486C46.2049 55.486 47.8438 55.4412 49.5277 55.3293C62.4597 54.5012 78.5798 50.4278 97.4165 43.2657C120.452 34.4921 150.806 36.4617 172.225 39.6399C195.462 43.0866 213.445 48.7044 213.625 48.7715C213.962 48.8834 214.321 48.7492 214.456 48.4582C214.59 48.1896 214.411 47.8763 214.096 47.7867C213.917 47.7196 195.821 42.0795 172.449 38.6103C158.731 36.5736 145.889 35.656 134.304 35.9246C119.778 36.2379 107.205 38.3865 96.8777 42.3257C78.1757 49.443 62.2127 53.4493 49.4379 54.2774C39.0204 54.9488 30.6236 53.5164 24.5168 49.9801C17.8039 46.1081 15.0648 40.3785 13.9422 36.2379C12.7074 31.7168 13.0891 28.091 13.1115 28.0463C13.134 27.7553 12.887 27.5091 12.5278 27.4643C12.1686 27.442 11.8542 27.6434 11.8318 27.9344C11.8093 28.091 11.4277 31.7392 12.6849 36.4169C13.4258 39.1699 14.5933 41.6766 16.1425 43.9148C18.0957 46.7124 20.6552 49.0177 23.7759 50.8306C29.1194 53.9193 36.1242 55.486 44.6108 55.486Z" fill="white" fill-opacity="0.5"/>
<path opacity="0.89" d="M54.2431 77.1323C56.5107 77.1323 58.8457 77.0427 61.2255 76.8861C72.3614 76.1027 85.1138 73.4841 99.1459 69.0973C123.371 61.51 151.75 62.741 171.282 65.1134C192.476 67.6873 208.147 72.0964 208.305 72.1412C208.641 72.2307 209.001 72.0964 209.113 71.8279C209.225 71.5593 209.045 71.2459 208.709 71.1564C208.552 71.1117 192.791 66.6577 171.484 64.0839C158.956 62.5619 146.99 61.98 135.899 62.3381C122.024 62.7857 109.496 64.7329 98.6744 68.1125C72.9676 76.1475 51.9531 78.1171 36.2596 73.9541C23.2827 70.5073 16.8167 63.7929 12.5284 59.3614C10.2384 56.9665 8.7117 55.3998 7.0503 55.3327C6.35431 55.3103 5.68077 55.5565 5.05213 56.0937C4.80516 56.2951 4.82761 56.6308 5.07458 56.8323C5.32154 57.0337 5.74812 57.0337 5.97264 56.8099C6.44411 56.407 6.78089 56.3622 6.98295 56.3622C8.06061 56.407 9.58731 57.9737 11.5181 59.988C13.5612 62.1143 16.3676 65.0239 20.2517 67.7544C24.8767 71.0221 29.9732 73.3722 35.8554 74.9165C41.3785 76.3937 47.5302 77.1323 54.2431 77.1323Z" fill="white" fill-opacity="0.5"/>
<path opacity="0.89" d="M65.9841 99.4905C67.6904 99.4905 69.3968 99.4458 71.1255 99.3786C80.3979 98.9758 90.4113 97.4762 100.896 94.9247C126.468 88.7027 152.849 89.195 170.473 90.717C189.602 92.3508 202.825 95.5066 202.96 95.5514C203.297 95.6409 203.656 95.4843 203.746 95.1933C203.836 94.9247 203.656 94.6337 203.319 94.5442C203.185 94.5218 189.848 91.3437 170.63 89.6874C159.337 88.725 148.246 88.4565 137.649 88.9041C124.403 89.4636 111.897 91.1646 100.514 93.9399C56.1729 104.728 33.699 93.9175 18.8137 86.7555C14.2786 84.5845 10.7088 82.8611 7.43089 82.212C3.79376 81.4958 0.852627 82.2344 -1.81909 84.5397C-2.06605 84.7411 -2.0436 85.0768 -1.79664 85.2783C-1.54967 85.4797 -1.12309 85.4797 -0.898581 85.2559C4.13053 80.8915 9.40661 83.443 18.1627 87.6507C25.6165 91.2318 34.9114 95.7081 48.1577 98.0134C53.8379 98.9758 59.81 99.4905 65.9841 99.4905Z" fill="white" fill-opacity="0.5"/>
<path opacity="0.89" d="M79.7238 118.983C87.2226 118.983 94.7662 118.334 102.512 117.036C129.566 112.47 153.971 112.224 169.664 112.806C186.682 113.433 197.459 115.178 197.571 115.201C197.93 115.268 198.267 115.066 198.335 114.798C198.402 114.507 198.177 114.238 197.841 114.171C197.728 114.149 186.884 112.403 169.776 111.754C159.741 111.373 149.503 111.441 139.4 111.978C126.759 112.627 114.276 113.992 102.265 116.006C70.2717 121.4 47.9326 114.462 29.994 108.912C21.8665 106.382 14.8617 104.211 8.55287 103.786C1.59294 103.316 -3.93011 105.062 -8.80206 109.27C-9.04903 109.471 -9.02657 109.807 -8.77961 110.008C-8.53264 110.21 -8.10607 110.21 -7.88155 109.986C-3.30147 106.024 1.88481 104.39 8.44061 104.838C14.5698 105.263 21.5073 107.412 29.5449 109.896C38.4357 112.649 48.4939 115.783 60.4829 117.551C66.8816 118.513 73.2802 118.983 79.7238 118.983Z" fill="white" fill-opacity="0.5"/>
<path opacity="0.89" d="M94.834 146.94C97.9547 146.94 101.143 146.828 104.353 146.559C159.09 142.06 192.138 142.284 192.453 142.284C192.812 142.284 193.081 142.06 193.104 141.769C193.104 141.478 192.812 141.232 192.475 141.232C192.138 141.232 159.045 141.008 104.219 145.507C82.3285 147.298 62.5938 142.374 45.1939 138.009C33.407 135.055 22.2711 132.28 12.1679 132.056C6.75716 131.944 1.97501 132.548 -2.40301 133.936C-7.25251 135.458 -11.5856 137.897 -15.6044 141.389C-15.8514 141.59 -15.8289 141.926 -15.582 142.127C-15.335 142.329 -14.9084 142.329 -14.6839 142.105C1.45863 128.161 20.5872 132.951 44.8123 138.994C59.8098 142.777 76.4912 146.94 94.834 146.94Z" fill="white" fill-opacity="0.5"/>
</g>
<path d="M162.495 44.0362V125.522C162.495 127.982 160.487 129.98 158.015 129.98H38.794C36.3223 129.98 34.314 127.982 34.314 125.522V44.0362C34.314 41.5769 36.3223 39.5786 38.794 39.5786H158.015C160.487 39.5786 162.495 41.5769 162.495 44.0362Z" fill="#E9EAE8"/>
<path d="M157.655 39.5786H38.4148C36.5801 39.5786 35.0157 40.6707 34.3204 42.2226L161.884 126.773C162.058 126.313 162.135 125.796 162.135 125.279V44.0236C162.135 41.5712 160.127 39.5786 157.655 39.5786Z" fill="white"/>
<path d="M155.838 46.8047H41.6005V122.523H155.838V46.8047Z" fill="#019DF4"/>
<path opacity="0.13" d="M155.838 122.674V46.9565H41.6005L155.838 122.674Z" fill="white"/>
<circle cx="102.075" cy="74.0753" r="43.0753" fill="#0B2739" fill-opacity="0.2"/>
<path d="M98.9373 42.2676C99.5749 42.2676 100.077 42.7851 100.077 43.3984C100.077 44.0309 99.5556 44.5292 98.9373 44.5292C98.2998 44.5292 97.7975 44.0117 97.7975 43.3984C97.7781 42.7851 98.2998 42.2676 98.9373 42.2676Z" fill="#0B2739"/>
<path d="M82.0852 127.433C81.8456 127.034 81.4143 126.79 80.9488 126.79H14.0738C11.7553 126.796 9.99365 128.246 10 130.17C10.008 132.093 11.7553 133.555 14.0738 133.549H183.788C186.106 133.543 188.006 132.186 188 130.262C187.992 128.338 186.106 126.784 183.788 126.79H116.407C115.898 126.79 115.434 127.081 115.213 127.54L114.638 128.733C114.417 129.192 113.953 129.483 113.444 129.483H84.0661C83.6006 129.483 83.1693 129.239 82.9297 128.84L82.0852 127.433Z" fill="#B6B7B7"/>
<path d="M86.0988 71.1539C84.1009 71.1848 80.4095 72.1863 78.7236 79.1685C77.902 82.4327 77.7723 85.8366 78.343 89.1554C78.8104 91.9474 79.5819 94.6781 80.6435 97.2974C80.8778 97.8434 81.1775 98.358 81.5359 98.8297C82.3579 99.8834 83.726 99.8158 84.3006 99.5283C84.9267 99.2156 85.6459 98.4611 85.3852 96.7377C85.2098 95.8146 84.9785 94.9032 84.6926 94.0089C84.0647 91.9305 83.2294 89.4217 83.1571 87.6405C83.06 85.2494 83.9886 84.9387 84.6051 84.7998C85.6421 84.5682 86.5079 85.7241 87.3394 87.1715C88.325 88.8987 90.0147 91.9614 91.3942 94.3003C92.6387 96.4116 94.9353 98.6734 98.6248 98.517C102.385 98.3588 105.157 96.9037 106.584 92.3242C107.654 88.8968 108.382 86.3417 109.554 83.7133C110.902 80.6969 112.698 79.0817 114.212 79.5757C115.619 80.0331 115.969 81.4264 115.986 83.474C115.967 85.238 115.85 86.9996 115.634 88.7501C115.541 89.4789 115.501 90.2135 115.512 90.9482C115.598 92.1177 116.096 93.2853 117.394 93.4724C118.777 93.6654 119.887 92.55 120.33 91.1952C120.514 90.5637 120.649 89.9185 120.733 89.2654C121.138 86.6563 121.249 84.0088 121.062 81.3743C120.847 77.8716 120.172 74.6778 118.992 71.9181C117.854 69.2665 116.039 67.5721 113.718 67.4235C111.147 67.2575 108.2 68.9886 106.647 72.3465C105.218 75.4343 104.076 78.6185 103.384 80.2415C102.691 81.8645 101.65 82.8989 100.061 83.0687C98.1206 83.2752 96.4461 81.8471 95.2245 79.8092C94.1571 78.0338 92.0412 74.6527 90.9071 73.516C89.8435 72.4488 88.639 71.1134 86.0988 71.1539Z" fill="white"/>
<circle cx="99.0753" cy="68.0753" r="42.0247" fill="#5CB615" stroke="white" stroke-width="2.10123"/>
<path d="M93.0276 77.552C93.9016 78.5596 95.4597 78.5663 96.3424 77.5662L111.877 59.9647C112.684 59.05 112.599 57.6519 111.688 56.842C110.776 56.0321 109.382 56.1172 108.575 57.0319L94.736 72.7814L89.8689 67.1707C89.0694 66.2491 87.6765 66.152 86.7577 66.9541C85.8389 67.7561 85.7422 69.1534 86.5417 70.075L93.0276 77.552Z" fill="white"/>
<circle cx="99.1228" cy="67.9348" r="27.5469" stroke="white" stroke-width="3.15185"/>
</svg>
