<svg width="158" height="140" viewBox="0 0 158 140" fill="none" xmlns="http://www.w3.org/2000/svg">
<path d="M18 70C18 22.2261 43.657 0 88 0C132.343 0 158 22.2261 158 70C158 117.774 132.343 140 88 140C43.657 140 18 117.774 18 70Z" fill="#E6F5FD"/>
<mask id="mask0_98_3280" style="mask-type:alpha" maskUnits="userSpaceOnUse" x="18" y="0" width="140" height="140">
<path d="M18 70C18 22.2261 43.657 0 88 0C132.343 0 158 22.2261 158 70C158 117.774 132.343 140 88 140C43.657 140 18 117.774 18 70Z" fill="#019BF2"/>
</mask>
<g mask="url(#mask0_98_3280)">
<path d="M60.1879 169.263C60.1879 169.263 90.8891 187.551 105.921 169.263C118.63 120.034 116.599 80.4406 116.599 80.4406L93.849 73.9966H81.6614L53.5138 78.757C53.5718 78.757 49.9736 117.247 60.1879 169.263Z" fill="#019AF1"/>
<path d="M93.8488 68.0755C93.7907 70.1654 93.7907 72.3715 93.9068 74.4614C93.9068 74.4614 90.1925 81.7182 81.6031 74.4614C81.6031 74.4614 81.8933 67.6691 81.487 61.7476C83.6344 63.9536 87.9291 67.4949 93.8488 68.0755Z" fill="#F3C2B7"/>
<path d="M81.487 61.7475C81.4289 60.5283 81.3128 59.3672 81.1387 58.3223H94.7192C94.7192 58.3223 94.0808 62.7924 93.8487 68.0754C87.929 67.4948 83.6343 63.9535 81.487 61.7475Z" fill="#D68A7F"/>
<path d="M99.4198 37.2485C99.4198 37.2485 103.598 32.5461 105.514 34.0555C107.429 35.5649 107.951 44.6794 96.6341 45.26L99.4198 37.2485Z" fill="#D68A7F"/>
<path d="M76.8438 37.1903C76.8438 37.1903 72.6652 32.4298 70.75 33.9392C68.8348 35.4487 68.8348 44.1568 79.5715 45.2018L76.8438 37.1903Z" fill="#D68A7F"/>
<path d="M88.0452 60.7607C95.9382 60.9349 98.5498 54.607 99.6525 49.324C100.755 44.0411 102.496 29.0051 102.496 29.0051C102.496 22.7352 97.4471 17.6265 91.1212 17.6265H84.8533C78.5853 17.6265 73.4781 22.6772 73.4201 28.947C73.4201 28.947 74.813 40.9062 75.6835 48.6274C76.6121 56.2905 80.9068 60.5865 88.0452 60.7607Z" fill="#F3C2B7"/>
<path d="M99.4779 20.413L102.902 29.2372L101.335 38.584L100.639 38.1776L100.465 26.9151C100.465 26.9151 95.8796 29.8178 82.8215 29.4114C82.8215 29.4114 88.1028 27.2054 88.9733 25.3476C88.9733 25.3476 82.125 29.1792 75.625 28.8889L75.4509 39.0484L74.6964 39.3967C74.6964 39.3967 70.1115 20.7613 77.192 14.0271C84.2144 7.29278 103.424 23.3157 99.4779 20.413Z" fill="#A66C4F"/>
<path d="M103.772 25.8703C103.772 25.8703 103.888 20.8196 102.147 15.3045C100.406 9.78931 97.9681 7.58326 91.2359 7.93158C84.5037 8.27991 82.5305 7.11882 78.7581 8.68629C74.9858 10.2537 72.6063 16.5816 72.5482 25.58L103.772 25.8703Z" fill="#69D6F4"/>
<path d="M85.9542 7.87328L90.0168 7.93133C90.0168 7.93133 90.1329 6.94441 89.2043 7.00246H86.7668C85.9542 7.00246 85.9542 7.87328 85.9542 7.87328Z" fill="#1CA6C6"/>
<path d="M70.691 28.0763C71.7356 24.3028 73.883 23.9544 77.2491 23.1997C80.6152 22.5031 87.4054 22.6192 87.4054 22.6192C87.4054 22.6192 93.2671 22.445 99.0127 23.3158C103.017 23.9544 104.642 25.7541 105.339 27.728C102.727 26.3927 98.2582 24.7091 92.6867 25.0575C88.1018 25.3477 85.142 26.8572 83.3429 28.3085C79.8607 28.9471 78.3518 30.3985 74.8696 31.9659C70.2847 34.1139 69.6463 31.7918 70.691 28.0763Z" fill="#36BAD8"/>
<path d="M105.397 27.7857C105.687 28.6565 105.861 29.5273 105.919 30.3401C106.209 33.0686 104.468 34.3458 101.218 32.2559C97.9679 30.1659 94.9501 28.0179 87.8116 28.0179C86.0125 28.0179 84.5616 28.134 83.4008 28.3662C85.2 26.9149 88.2178 25.4055 92.7447 25.1152C98.3162 24.7088 102.785 26.4505 105.397 27.7857Z" fill="#42D2EA"/>
<path d="M81.7187 14.0273C81.8347 14.0273 81.8928 14.0273 82.0088 13.9693C88.0446 10.7183 92.9777 13.8532 93.1518 13.9693C93.442 14.1434 93.7902 14.0854 94.0224 13.7951C94.1965 13.5049 94.1384 13.1565 93.8483 12.9243C93.6161 12.7501 88.1027 9.2669 81.4285 12.8663C81.1383 13.0404 81.0222 13.3887 81.1963 13.679C81.3124 13.9112 81.4865 14.0273 81.7187 14.0273Z" fill="#0B2739"/>
<path d="M83.1694 16.1755C83.2855 16.1755 83.3435 16.1755 83.4596 16.1174C87.9865 13.6792 91.7008 16.0594 91.7588 16.1174C92.049 16.2916 92.3972 16.2336 92.6294 15.9433C92.8035 15.653 92.7454 15.3047 92.4553 15.0725C92.2811 14.9564 88.0445 12.2278 82.9373 15.0144C82.6471 15.1886 82.531 15.5369 82.7051 15.8272C82.7051 16.0594 82.9373 16.1755 83.1694 16.1755Z" fill="#0B2739"/>
<path d="M85.1431 17.9752C85.2592 17.9752 85.3172 17.9752 85.4333 17.9171C87.7548 16.6399 89.728 17.859 89.786 17.9171C90.0762 18.0913 90.4244 18.0332 90.6566 17.7429C90.8307 17.4527 90.7727 17.1043 90.4825 16.8721C90.3664 16.8141 87.8708 15.1886 84.853 16.8141C84.5628 16.9882 84.4467 17.3366 84.6208 17.6268C84.6788 17.859 84.911 17.9752 85.1431 17.9752Z" fill="#0B2739"/>
<path d="M86.9421 18.9623C86.9421 18.614 87.2323 18.3237 87.5805 18.3237C87.9288 18.3237 88.2189 18.614 88.2189 18.9623C88.2189 19.3107 87.9288 19.6009 87.5805 19.6009C87.2323 19.6009 86.9421 19.3107 86.9421 18.9623Z" fill="#0B2739"/>
<path d="M98.8392 32.4308C99.4776 31.7922 97.1562 31.4438 95.299 31.2116C93.4419 30.9794 91.5267 30.8633 91.5267 31.7341C91.5267 32.6049 93.4999 32.721 94.4285 32.7791C95.4731 32.8952 98.2008 33.0694 98.8392 32.4308Z" fill="#542E1E"/>
<path d="M77.1336 32.1974C76.5532 31.4427 78.8747 31.1524 80.7318 31.0363C82.589 30.8621 84.5042 30.6879 84.4462 31.6749C84.3881 32.6618 82.2988 32.6618 81.3702 32.7198C80.3256 32.7779 77.714 32.9521 77.1336 32.1974Z" fill="#542E1E"/>
<path d="M93.1517 38.7573C93.1517 39.3959 93.616 39.9184 94.1383 39.9184C94.7187 39.9184 95.1249 39.3959 95.1249 38.7573C95.1249 38.1187 94.6607 37.5962 94.1383 37.5962C93.616 37.5962 93.1517 38.1187 93.1517 38.7573Z" fill="#542E1E"/>
<path d="M80.4414 38.0615C80.4414 38.7001 80.9057 39.2226 81.4281 39.2226C82.0084 39.2226 82.4147 38.7001 82.4147 38.0615C82.4147 37.4229 81.9504 36.9004 81.4281 36.9004C80.9057 36.9004 80.4414 37.4229 80.4414 38.0615Z" fill="#542E1E"/>
<path d="M87.2904 45.7823L88.1029 45.8403C88.219 45.8403 88.335 45.7242 88.3931 45.6081L88.8574 36.0292C88.8574 35.9131 88.7993 35.855 88.7413 35.797L88.219 35.5648C88.0448 35.5067 87.8707 35.6228 87.8707 35.7389L87.1163 45.492C87.0582 45.6662 87.1743 45.7823 87.2904 45.7823Z" fill="#D68A7F"/>
<path d="M92.3397 49.5561C92.3397 49.5561 87.2325 51.9944 82.7057 49.498C82.7057 49.498 83.2861 53.6779 87.8709 53.9682C91.4692 54.2004 92.3397 49.5561 92.3397 49.5561Z" fill="white"/>
<path d="M53.5719 78.7573L0.991044 111.848L12.9465 123.807L63.4381 99.889L53.5719 78.7573Z" fill="#019AF1"/>
<path d="M123.39 86.1304L148.926 137.276L129.832 144.765L99.8851 96.7543L123.39 86.1304Z" fill="#019AF1"/>
<path d="M115.017 100.462C109.831 100.462 105.628 95.937 105.628 90.3552C105.628 84.7734 109.831 80.2485 115.017 80.2485C120.202 80.2485 124.405 84.7734 124.405 90.3552C124.405 95.937 120.202 100.462 115.017 100.462Z" fill="#019AF1"/>
<path d="M2.7326 103.314C5.22816 94.8963 11.1479 77.3059 19.0988 58.3221C19.8533 56.5225 20.6078 54.7808 21.2462 53.2134C25.8891 55.1872 31.7507 57.045 34.4785 57.9158C34.2463 58.6124 34.0142 59.3671 33.8401 60.1218C30.532 72.7196 20.2596 113.648 18.8667 117.828C17.4738 121.949 11.38 127.349 4.70583 122.472C-0.923692 118.176 0.469182 110.919 2.7326 103.314Z" fill="#019AF1"/>
<path d="M31.8083 32.4884C32.4467 32.7206 32.2145 33.5334 31.8663 34.6944C31.8663 34.6944 34.4779 30.3404 35.6387 30.8048C36.5672 31.3273 35.0003 33.9978 35.0003 33.9978C35.0003 33.9978 38.3083 29.4115 39.2369 30.1082C40.1655 30.8048 37.6699 35.1589 37.6699 35.1589C37.6699 35.1589 40.2816 32.2562 41.3262 33.0689C42.4289 33.8817 36.9155 45.2022 36.9155 45.2022C36.9155 45.2022 41.7905 39.571 43.1834 41.3707C44.4602 43.1123 38.1342 46.9439 34.594 57.858C31.8663 57.0453 26.0046 55.1876 21.3617 53.1557C27.7457 38.0035 30.7636 32.082 31.8083 32.4884Z" fill="#F3C2B7"/>
<path d="M149.39 149.352C148.751 158.118 146.836 176.114 143.122 196.375C142.773 198.291 142.425 200.149 142.077 201.832C137.086 200.904 130.992 200.323 128.148 200.091C128.206 199.336 128.264 198.581 128.322 197.827C128.903 184.823 129.425 142.327 129.889 137.973C130.354 133.619 136.215 126.71 143.47 130.716C150.492 134.606 149.97 141.398 149.39 149.352Z" fill="#019AF1"/>
<path d="M24.5536 95.5933L20.2589 113.068" stroke="#025C84" stroke-width="0.789773" stroke-miterlimit="10" stroke-linecap="round" stroke-linejoin="round"/>
<path d="M98.3176 75.5642C98.3176 75.5642 88.5675 90.0197 77.3665 74.6934" stroke="#025C84" stroke-width="0.789773" stroke-miterlimit="10" stroke-linecap="round" stroke-linejoin="round"/>
<path d="M114.452 122.704C114.452 122.704 114.974 117.654 116.135 111.442" stroke="#025C84" stroke-width="0.789773" stroke-miterlimit="10" stroke-linecap="round" stroke-linejoin="round"/>
<path d="M66.514 76.5512C66.514 76.5512 111.956 147.784 121.765 175.417L121.242 183.835L53.5719 78.7573C53.5719 78.7573 57.7505 74.6935 66.514 76.5512Z" fill="#F7A59F"/>
</g>
<mask id="mask1_98_3280" style="mask-type:alpha" maskUnits="userSpaceOnUse" x="-15" y="7" width="93" height="131">
<path d="M77.6225 59.0405L47.544 123.494L0.755365 137.34L-15 108.694L0.755365 33.7364L47.544 7L77.6225 59.0405Z" fill="#D9D9D9"/>
</mask>
<g mask="url(#mask1_98_3280)">
<path d="M60.1879 169.263C60.1879 169.263 90.8891 187.55 105.921 169.263C118.63 120.034 116.599 80.4406 116.599 80.4406L93.849 73.9966H81.6614L53.5138 78.757C53.5718 78.757 49.9735 117.247 60.1879 169.263Z" fill="#019AF1"/>
<path d="M76.8438 37.1903C76.8438 37.1903 72.6652 32.4298 70.75 33.9392C68.8348 35.4487 68.8348 44.1568 79.5715 45.2018L76.8438 37.1903Z" fill="#D68A7F"/>
<path d="M88.0452 60.7607C95.9382 60.9349 98.5498 54.607 99.6525 49.324C100.755 44.0411 102.496 29.0051 102.496 29.0051C102.496 22.7352 97.4471 17.6265 91.1212 17.6265H84.8533C78.5853 17.6265 73.4781 22.6772 73.4201 28.947C73.4201 28.947 74.813 40.9062 75.6835 48.6274C76.6121 56.2905 80.9068 60.5865 88.0452 60.7607Z" fill="#F3C2B7"/>
<path d="M99.4779 20.413L102.902 29.2372L101.335 38.584L100.639 38.1776L100.465 26.9151C100.465 26.9151 95.8796 29.8178 82.8215 29.4114C82.8215 29.4114 88.1028 27.2054 88.9733 25.3476C88.9733 25.3476 82.125 29.1792 75.625 28.8889L75.4509 39.0484L74.6964 39.3967C74.6964 39.3967 70.1115 20.7613 77.192 14.0271C84.2144 7.29278 103.424 23.3157 99.4779 20.413Z" fill="#A66C4F"/>
<path d="M103.772 25.8703C103.772 25.8703 103.888 20.8196 102.147 15.3045C100.406 9.78931 97.9681 7.58326 91.2359 7.93158C84.5037 8.27991 82.5305 7.11882 78.7581 8.68629C74.9858 10.2537 72.6063 16.5816 72.5482 25.58L103.772 25.8703Z" fill="#69D6F4"/>
<path d="M70.691 28.0763C71.7356 24.3028 73.883 23.9544 77.2491 23.1997C80.6152 22.5031 87.4054 22.6192 87.4054 22.6192C87.4054 22.6192 93.2671 22.445 99.0127 23.3158C103.017 23.9544 104.642 25.7541 105.339 27.728C102.727 26.3927 98.2582 24.7091 92.6867 25.0575C88.1018 25.3477 85.142 26.8572 83.3429 28.3085C79.8607 28.9471 78.3518 30.3985 74.8696 31.9659C70.2847 34.1139 69.6463 31.7918 70.691 28.0763Z" fill="#36BAD8"/>
<path d="M77.1336 32.1974C76.5532 31.4427 78.8747 31.1524 80.7318 31.0363C82.589 30.8621 84.5042 30.6879 84.4462 31.6749C84.3881 32.6618 82.2988 32.6618 81.3702 32.7198C80.3256 32.7779 77.714 32.9521 77.1336 32.1974Z" fill="#542E1E"/>
<path d="M53.5719 78.7573L0.991043 111.848L12.9465 123.807L63.4381 99.889L53.5719 78.7573Z" fill="#019AF1"/>
<path d="M2.7326 103.314C5.22816 94.8963 11.1479 77.3059 19.0988 58.3221C19.8533 56.5225 20.6078 54.7808 21.2462 53.2134C25.8891 55.1872 31.7507 57.045 34.4785 57.9158C34.2463 58.6124 34.0142 59.3671 33.8401 60.1218C30.532 72.7196 20.2596 113.648 18.8667 117.828C17.4738 121.949 11.38 127.349 4.70583 122.472C-0.923691 118.176 0.469181 110.919 2.7326 103.314Z" fill="#019AF1"/>
<path d="M31.8083 32.4884C32.4467 32.7206 32.2145 33.5334 31.8663 34.6944C31.8663 34.6944 34.4779 30.3404 35.6387 30.8048C36.5672 31.3273 35.0003 33.9978 35.0003 33.9978C35.0003 33.9978 38.3083 29.4115 39.2369 30.1082C40.1655 30.8048 37.6699 35.1589 37.6699 35.1589C37.6699 35.1589 40.2816 32.2562 41.3262 33.0689C42.4289 33.8817 36.9155 45.2022 36.9155 45.2022C36.9155 45.2022 41.7905 39.571 43.1834 41.3707C44.4602 43.1123 38.1342 46.9439 34.594 57.858C31.8663 57.0453 26.0046 55.1876 21.3617 53.1557C27.7457 38.0035 30.7636 32.082 31.8083 32.4884Z" fill="#F3C2B7"/>
<path d="M24.5536 95.5933L20.2589 113.068" stroke="#025C84" stroke-width="0.789773" stroke-miterlimit="10" stroke-linecap="round" stroke-linejoin="round"/>
<path d="M98.3176 75.5642C98.3176 75.5642 88.5675 90.0197 77.3665 74.6934" stroke="#025C84" stroke-width="0.789773" stroke-miterlimit="10" stroke-linecap="round" stroke-linejoin="round"/>
<path d="M66.514 76.5512C66.514 76.5512 111.956 147.784 121.765 175.417L121.242 183.835L53.5719 78.7573C53.5719 78.7573 57.7505 74.6935 66.514 76.5512Z" fill="#F7A59F"/>
</g>
<path d="M57.6095 35C57.6095 35 56.904 38.5151 57.6467 39.653C58.3833 40.7951 61.2363 42.6157 61.2363 42.6157C61.2363 42.6157 58.1888 41.7426 56.5833 42.6467C54.9778 43.5571 53.6206 46.2363 53.6206 46.2363C53.6206 46.2363 54.7006 42.9881 53.5896 41.5833C52.4744 40.1785 50 38.6206 50 38.6206C50 38.6206 53.273 39.442 54.6571 38.5896C56.035 37.7413 57.6095 35 57.6095 35Z" fill="#F28D15"/>
<path d="M30.1516 17C30.1516 17 29.6737 19.3793 30.1764 20.1489C30.6751 20.9227 32.6074 22.1558 32.6074 22.1558C32.6074 22.1558 30.5447 21.564 29.4585 22.1764C28.3723 22.793 27.4517 24.6074 27.4517 24.6074C27.4517 24.6074 28.182 22.4082 27.431 21.4585C26.6758 20.5068 25 19.4517 25 19.4517C25 19.4517 27.2158 20.0082 28.153 19.431C29.0861 18.8579 30.1516 17 30.1516 17Z" fill="#F28D15"/>
<path d="M48.1455 52C48.1455 52 49.0041 53.7876 49.7199 54.0503C50.4234 54.3131 52.2957 54.1579 52.2957 54.1579C52.2957 54.1579 50.6634 54.7889 50.2578 55.7323C49.8523 56.6737 50.1503 58.3081 50.1503 58.3081C50.1503 58.3081 49.542 56.5082 48.5758 56.2703C47.6096 56.0199 46 56.1627 46 56.1627C46 56.1627 47.7172 55.4365 48.0503 54.5882C48.3606 53.74 48.1455 52 48.1455 52Z" fill="#F28D15"/>
<path d="M48 21.6351C48 21.6351 50.1579 21.9351 50.6586 22.5909C51.1655 23.2468 51.6351 25.2433 51.6351 25.2433C51.6351 25.2433 51.7489 23.3192 52.5909 22.5847C53.433 21.8503 55.2433 21.6082 55.2433 21.6082C55.2433 21.6082 53.1661 21.5751 52.5765 20.6524C51.9951 19.7296 51.5999 18 51.5999 18C51.5999 18 51.4137 20.0379 50.6441 20.6586C49.891 21.2813 48 21.6351 48 21.6351Z" fill="#F28D15"/>
<path d="M18 34.1641C18 34.1641 19.2848 34.342 19.5827 34.733C19.8848 35.122 20.1641 36.3116 20.1641 36.3116C20.1641 36.3116 20.2324 35.1675 20.733 34.7289C21.2337 34.2924 22.3116 34.1475 22.3116 34.1475C22.3116 34.1475 21.0744 34.1269 20.7248 33.5786C20.3793 33.0303 20.1434 32 20.1434 32C20.1434 32 20.0317 33.2124 19.5744 33.5827C19.1255 33.9531 18 34.1641 18 34.1641Z" fill="#F28D15"/>
</svg>
