<svg width="16" height="16" viewBox="0 0 16 16" fill="none" xmlns="http://www.w3.org/2000/svg">
<path d="M12.2488 6.99406H5.415L8.18651 4.2107C8.46243 3.93355 8.46243 3.48502 8.18651 3.20787C7.91059 2.93071 7.46407 2.93071 7.18815 3.20787L3.2065 7.20739C3.07413 7.34036 3 7.52059 3 7.70911C3 7.89762 3.07413 8.07727 3.2065 8.21082L7.18815 12.2103C7.32582 12.3486 7.50643 12.4178 7.68763 12.4178C7.86883 12.4178 8.04885 12.3486 8.1871 12.2103C8.46301 11.9332 8.46301 11.4847 8.1871 11.2075L5.40441 8.41233H12.2488C12.6388 8.41233 12.9547 8.09499 12.9547 7.7032C12.9547 7.3114 12.6388 6.99406 12.2488 6.99406Z" fill="#50535A"/>
</svg>
