<svg width="60" height="60" viewBox="0 0 60 60" fill="none" xmlns="http://www.w3.org/2000/svg">
<path d="M29.9914 60C20.4602 60 13.0489 57.5125 7.96267 52.6058C2.67987 47.5196 0.00427246 39.9202 0.00427246 30.0128C0.00427246 20.1054 2.67987 12.4975 7.96267 7.40276C13.0489 2.49608 20.4687 0 29.9914 0C39.5227 0 46.934 2.48753 52.0288 7.39422C57.3201 12.489 59.9957 20.0969 59.9957 30.0043C59.9957 39.9117 57.3116 47.511 52.0288 52.6058C46.934 57.5125 39.5227 60 29.9914 60V60ZM29.9914 3.32526C12.2966 3.32526 3.32098 12.3009 3.32098 30.0128C3.32098 47.7077 12.2966 56.6833 29.9914 56.6833C47.6948 56.6833 56.679 47.7077 56.679 30.0128C56.679 12.3094 47.6948 3.32526 29.9914 3.32526V3.32526Z" fill="#019DF4"/>
<path d="M25.6322 43.2448C25.1535 43.2448 24.7005 43.031 24.4013 42.6549L16.3489 32.5338C15.8103 31.8585 15.9214 30.8669 16.5968 30.3284C17.2721 29.7898 18.2637 29.901 18.8022 30.5763L25.5895 39.1074L41.9764 17.1727C42.4979 16.4803 43.4809 16.3349 44.1733 16.8564C44.8657 17.3778 45.0111 18.3609 44.4896 19.0533L26.8974 42.6122C26.6067 43.0054 26.1537 43.2362 25.6664 43.2448H25.6322V43.2448Z" fill="#019DF4"/>
</svg>
