<svg width="24" height="24" viewBox="0 0 24 24" fill="none" xmlns="http://www.w3.org/2000/svg">
<path d="M18.7992 12.9206H15.4212C14.9916 12.9206 14.6417 13.2665 14.6417 13.6913C14.6417 14.1161 14.9916 14.462 15.4212 14.462H18.7992C19.2288 14.462 19.5787 14.1161 19.5787 13.6913C19.5787 13.2665 19.2288 12.9206 18.7992 12.9206Z" fill="#50535A"/>
<path d="M10.8411 12.3343L10.7591 12.2869L10.8145 12.2104C11.1725 11.716 11.3411 11.1325 11.3019 10.5245C11.2187 9.23308 10.1724 8.18602 8.86802 8.08953C8.12429 8.03473 7.41521 8.27965 6.87012 8.77978C6.33195 9.27305 6.02361 9.97071 6.02361 10.6941C6.02361 11.2564 6.20261 11.7925 6.54098 12.2447L6.59757 12.32L6.51615 12.3686C5.57148 12.9344 4.87222 13.8615 4.59794 14.9126C4.53731 15.1444 4.58812 15.3859 4.73652 15.5754C4.8855 15.7655 5.11069 15.8746 5.35379 15.8746C5.71006 15.8746 6.01957 15.6399 6.10618 15.3048C6.40991 14.1281 7.47988 13.306 8.70865 13.306C9.93741 13.306 11.0074 14.1281 11.3111 15.3054C11.3977 15.6411 11.7072 15.8752 12.0635 15.8752C12.3066 15.8752 12.5312 15.7661 12.6796 15.576C12.8286 15.3859 12.8794 15.1427 12.8182 14.9097C12.5364 13.8353 11.8164 12.8967 10.8411 12.3343ZM9.74109 10.8162C9.68565 11.3072 9.2855 11.7029 8.78891 11.7577C8.74849 11.7623 8.70807 11.7645 8.66823 11.7645C8.40203 11.7645 8.14392 11.6681 7.94471 11.4922C7.71489 11.289 7.58324 10.9984 7.58324 10.6946C7.58324 10.1043 8.06886 9.62416 8.66592 9.62416C8.97311 9.62416 9.2676 9.75433 9.47258 9.98156C9.67757 10.2076 9.77516 10.5119 9.74109 10.8162Z" fill="#50535A"/>
<path d="M18.7992 9.4523H15.4212C14.9916 9.4523 14.6417 9.79827 14.6417 10.223C14.6417 10.6478 14.9916 10.9938 15.4212 10.9938H18.7992C19.2288 10.9938 19.5787 10.6478 19.5787 10.223C19.5787 9.79827 19.2288 9.4523 18.7992 9.4523Z" fill="#50535A"/>
<path d="M20.4882 4H3.51181C2.12656 4 1 5.11386 1 6.4835V17.5165C1 18.8861 2.12656 20 3.51181 20H20.4911C21.8746 19.9983 23 18.8844 23 17.5165V6.4835C23 5.11386 21.8734 4 20.4882 4ZM21.4409 17.5165C21.4409 18.0355 21.0142 18.4579 20.4899 18.4585H3.51181C2.98635 18.4585 2.55906 18.036 2.55906 17.5165V6.4835C2.55906 5.96396 2.98635 5.54148 3.51181 5.54148H20.4882C21.0136 5.54148 21.4409 5.96396 21.4409 6.4835V17.5165Z" fill="#50535A"/>
</svg>
