<svg width="24" height="24" viewBox="0 0 24 24" fill="none" xmlns="http://www.w3.org/2000/svg">
<path d="M15.4866 22.988H8.51291C8.04075 23.0279 7.56577 22.9681 7.116 22.8122C6.66623 22.6563 6.25078 22.4075 5.89418 22.0804C5.57647 21.706 5.33445 21.2678 5.18277 20.7924C5.03108 20.3171 4.97287 19.8144 5.01166 19.3147V4.68479C4.97596 4.19117 5.03517 3.69506 5.18578 3.22591C5.33639 2.75676 5.57533 2.32413 5.88842 1.95372C6.2418 1.61773 6.65682 1.36092 7.1081 1.199C7.55937 1.03709 8.03739 0.973471 8.51291 1.01205H15.4866C15.9614 0.971766 16.4391 1.03273 16.8909 1.19126C17.3427 1.34979 17.7592 1.60261 18.1153 1.93449C18.4294 2.30795 18.6686 2.74394 18.8186 3.21646C18.9686 3.68898 19.0263 4.18835 18.9884 4.68479V19.3147C19.0271 19.8144 18.9688 20.3171 18.817 20.7925C18.6653 21.2679 18.4231 21.706 18.1053 22.0804C17.7487 22.4075 17.3333 22.6562 16.8835 22.8121C16.4337 22.968 15.9588 23.0278 15.4866 22.988ZM8.51291 2.26248C6.87254 2.26248 6.20371 2.96407 6.20371 4.68479V19.3147C6.20371 21.0805 6.82959 21.7371 8.51291 21.7371H15.4866C17.1705 21.7371 17.7963 21.0805 17.7963 19.3147V4.68479C17.8623 4.01416 17.6742 3.34322 17.2726 2.81683C16.7704 2.39194 16.1284 2.19266 15.4866 2.26248H8.51291ZM11.9995 20.3822C11.8406 20.3964 11.6806 20.374 11.5308 20.3164C11.381 20.2589 11.245 20.1676 11.1324 20.0491C11.0198 19.9306 10.9333 19.7876 10.879 19.6303C10.8247 19.473 10.8038 19.3051 10.8179 19.1384C10.8028 18.9715 10.8229 18.8031 10.8769 18.6452C10.9309 18.4874 11.0173 18.3439 11.1301 18.2251C11.2429 18.1063 11.3793 18.0151 11.5296 17.9578C11.6799 17.9006 11.8403 17.8788 11.9995 17.894C12.1588 17.8786 12.3193 17.9003 12.4697 17.9574C12.6201 18.0146 12.7567 18.1058 12.8696 18.2247C12.9825 18.3435 13.0691 18.487 13.1231 18.6449C13.1771 18.8029 13.1973 18.9714 13.1821 19.1384C13.1962 19.3051 13.1754 19.473 13.121 19.6303C13.0667 19.7876 12.9802 19.9306 12.8676 20.0491C12.755 20.1676 12.6191 20.2589 12.4693 20.3164C12.3195 20.374 12.1595 20.3964 12.0005 20.3822H11.9995Z" fill="#50535A"/>
</svg>
