<svg width="24" height="24" viewBox="0 0 24 24" fill="none" xmlns="http://www.w3.org/2000/svg">
<path fill-rule="evenodd" clip-rule="evenodd" d="M12.4186 20.7706C14.3794 20.7336 20.7768 19.9994 20.7768 12.0253C20.7768 4.05414 14.3481 3.28007 12.3788 3.23169C12.1113 3.226 11.7954 3.22031 11.5079 3.22316C9.56424 3.24308 3.22371 3.92039 3.22371 11.9713C3.22371 20.0307 9.61831 20.7478 11.5791 20.7763C11.8608 20.782 12.1682 20.7763 12.4186 20.7706ZM12.4072 2.01083C14.0094 2.04782 22.0006 2.7109 22.0006 12.0253C22.0006 21.3483 14.0379 21.9658 12.4385 21.9943C12.2621 21.9972 12.0543 22 11.8494 22C11.7527 22 11.6559 22 11.562 21.9972C9.9655 21.9772 2 21.3853 2 11.9713C2 2.55723 9.91143 2.01652 11.4994 2.00229C11.7954 1.9966 12.1283 2.00229 12.4072 2.01083ZM11.5535 16.6242C12.0913 16.6242 12.4414 16.9771 12.4414 17.4837C12.4414 18.05 12.097 18.3886 11.5848 18.3886C11.0384 18.3886 10.6969 18.05 10.6969 17.5491V17.4837C10.6997 16.9771 11.0498 16.6242 11.5535 16.6242ZM14.24 6.4048C14.9486 6.92844 15.2815 7.64843 15.2815 8.67294C15.2815 9.92511 14.7636 10.6707 13.5769 12.0709C12.2166 13.6446 12.1625 13.7072 12.1625 15.1757C12.1625 15.4005 11.9804 15.5826 11.7555 15.5826H11.3059C11.1124 15.5826 10.9445 15.446 10.9046 15.2525C10.8648 15.0419 10.8449 14.8256 10.8477 14.6094C10.8477 13.508 11.2347 12.8563 12.1027 11.8119L12.2678 11.6127C13.6964 9.92226 13.9668 9.44985 13.9668 8.65302C13.9668 8.08669 13.8045 7.71673 13.4232 7.41223C13.2041 7.23863 12.8199 7.03658 11.7698 7.03658C11.1977 7.03658 10.694 7.10203 10.0765 7.25855C9.85736 7.31263 9.63823 7.18172 9.58131 6.96543C9.57847 6.9569 9.57847 6.94836 9.57562 6.93982L9.51017 6.59263C9.47602 6.41049 9.56708 6.22836 9.73499 6.14868C10.1192 5.96654 11.0611 5.77872 11.969 5.77872C12.9252 5.77587 13.6879 5.98647 14.24 6.4048Z" fill="#50535A"/>
</svg>
